# xmcd
#
# Track frame offsets:
#	150
#	22785
#	23730
#	39522
#	61575
#	62510
#
# Disc length: 1098 seconds
#
# Revision: 0
# Processed by: cddbd v1.5.1PL0 Copyright (c) Steve Scherf et al.
# Submitted via: dBpowerAMP V4.0
#
DISCID=38044806
DTITLE=VVDM - Dienstplicht nokken now
DYEAR=1900
DGENRE=Acapella
TTITLE0=Kill (it;s for fighting, it's for fun)
TTITLE1=Tussen
TTITLE2=Dienstplicht, nokken now!!!
TTITLE3=Voorwaarts, mars
TTITLE4=Tussen
TTITLE5=Links, 2,3, fear (Stratego Mix)
EXTD=
EXTT0=
EXTT1=
EXTT2=
EXTT3=
EXTT4=
EXTT5=
PLAYORDER=
